<svg xmlns="http://www.w3.org/2000/svg" viewBox="0 0 1000 600" width="1000" height="600">
  <style>
    .canton {
      fill: #f0f0f0;
      stroke: #a0a0a0;
      stroke-width: 1.5;
      transition: fill 0.3s ease;
    }
    .canton:hover {
      fill: #d0d0d0;
    }
  </style>
  <path id="AG" class="canton" d="M382 173l-14 3-5 13-3 17h-9l-3 7-11 4-3-11-7-10-8-2-12 11v11l-8 7h-11l-3 11-13-1-11-7-2-10 6-12 11-11 11-3 14 3 6 4 15-2 16 2 8 8 7-3z"/>
  <path id="AI" class="canton" d="M523 218l-10 13-11-2-10-10-3-12h10l7 1 9 5 8 5z"/>
  <path id="AR" class="canton" d="M523 218l8 5 12 1 11-13-7-14-11-5-8 5-9 5-7 1h10l3 12 10 10 11 2 10-13z"/>
  <path id="BL" class="canton" d="M325 152l-14 11-10 16-4 13h-7l-12-5-9-15-2-11 10-14 11-3 14 5 12 2z"/>
  <path id="BS" class="canton" d="M325 152l-12-2-14-5-11 3-10 14 2 11 9 15 12 5h-1z"/>
  <path id="BE" class="canton" d="M322 214l-4 13-13 19-15 4-13-3-14-15-10-17-21-2-12-11-11-26-4-19 2-12 15-13 18-3 12-11 8 2 7 10 3 11-4-7h9l3-17 5-13 14-3 11 10 12-3 8 4 4 9 9 10 8 13v10l-12 15-4 10z"/>
  <path id="FR" class="canton" d="M260 263l-10-17-14-15-13 3-15-4-13-19-4-13 10-11h16l14 8 11 14 10 15 2 17-4 15-9 7z"/>
  <path id="GE" class="canton" d="M110 373l-13-3-10-15-2-18 8-11 14-3 13 5 5 12-3 11-12 12z"/>
  <path id="GL" class="canton" d="M482 248l-11 14-13 3-10-5-12-15-5-18 5-12 14-11 12 5 8 14 4 15z"/>
  <path id="GR" class="canton" d="M640 340l-16 11-20-4-15-17-10-16-11-2-18 5-15-13-11-18-6-15-16-2-11 14-13-3-10-5-12-15-5-18 5-12 14-11 5-11-13-7-14 11-13 12-1 8-5 12-12 14-5 18 2 20 11 15 14 22 5 24-8 15-12 20-5 22 5 16 15 7 18 8 22-5 20-14 18-22z"/>
  <path id="JU" class="canton" d="M228 174l-11-26-4-19 2-12 15-13 11 6 5 18-5 11-10 15-15 11-8-5z"/>
  <path id="LU" class="canton" d="M382 173l7-3 8-8-16-2-15 2-6-4-14-3-11-10-6-12 2-10-5-12-12-1-10 10-8-4-12-11-18 3-15 13 4 19 11 26 12 11h8l7 10 3-11 11-4 3 7 9 1-5-13z"/>
  <path id="NE" class="canton" d="M217 252l-11-26-12-11-21-2 10 17 9 7 4-15 2-17-10-15-11-14-14-8-10-1-12 11-5 18 3 12 11 18 8 11z"/>
  <path id="NW" class="canton" d="M414 245l-11 14-14 1-13-11-5-15 8-13 12-10h11l8 7 4 10z"/>
  <path id="OW" class="canton" d="M414 245l-4-10-8-7h-11l-12 10-8 13-4 10h-6l-1 12 10 11 15 1 14-12 8-11 3-11h-4z"/>
  <path id="SG" class="canton" d="M523 218l-10-13-11 2-10 10-3 12h-10l-7-1-9-5-8-5-11 5-14-5-12 12-8 5-4 15-8-14-12-5-14 11-5 12 5 18 12 15 10 5 13-3 11-14 16-2h20l11 13 7 14z"/>
  <path id="SH" class="canton" d="M440 83l-11 14-14 3-15-10-3-11h10l8-8h11l8 5z"/>
  <path id="SO" class="canton" d="M325 152l-14 11-10 16-4 13h-7l-12-5-9-15-2-11 10-14 11-3 14 5 12 2z" transform="translate(10,30)"/>
  <path id="SZ" class="canton" d="M455 204l-11 10-12 3-14-10-11-11-6 4-15-2-16 2-8 8-7-3-11-10-6 12-2 10 11 7 13 1h4l5 15 13 11 14-1 11-14 11-14 4-15z"/>
  <path id="TG" class="canton" d="M482 138l-11 13-14 5-12-5-11-11-6-12 2-10 5-12-12-1-10 10h-11l-8-5h-11l-8-8 10-16h11l14-5 12 2 15 10 11 14 4 11z"/>
  <path id="TI" class="canton" d="M482 248l-11 14-13 3-10-5-12-15-5-18 5-12-1-12-10-11 1-12h-6l-4 10-8-11-14 12-15-1-10-11 1-12-11-14-16 2-6 15-11 18 5 14 10 16 15 17 20 4 16-11 14-18 10-22 15-12 22 8 20 14z"/>
  <path id="UR" class="canton" d="M439 245l-11 14-14 1-13-11-5-15 8-13 12-10h-11l-8 7-4 10h-6l-1-12 10-11 1-12 11-14 16 2 6 15 11 18-5-14z"/>
  <path id="VS" class="canton" d="M380 340l-16-11-20 4-15-17-10-16-11-2-18 5-15-13-11-18-6-15-16-2-11 14-13-3-10-5-12-15-5-18 5-12 14-11 5-11-13-7-14 11-13 12-1 8-5 12-12 14-5 18 2 20 11 15 14 22 5 24-8 15-12 20-5 22 5 16 15 7 18 8 22-5 20-14 18-22z" transform="translate(-50, -20)"/>
  <path id="VD" class="canton" d="M260 263l-10-17-14-15-13 3-15-4-13-19-4-13 10-11h-16l-14-8-11-14-10-15-2-17 10-15 11-14-12-11-10 1-5-18-11-6-15 13-2 12-4-19-11-26-21-2-12-11-8-11 11-18 3-12-11-5-3-12-5-11-15h-9l-12 5 4-13-10-16-14-11 13-5 14 3 8 11 2 18 10 15 13-3-5-12z" transform="translate(30,30)"/>
  <path id="ZG" class="canton" d="M430 204l-11-10-12-3-14 10-11 11-6-4-15 2-16-2-8-8 7 3 11 10-6-12-11-7-13-1-4-10 8-7h11l12 10 8 13v-10z"/>
  <path id="ZH" class="canton" d="M440 83l-11 14-14 3-15-10-3-11h-10l-8-8h-11l-8 5-11-14-14-5-12 2-15-10-11-14-4-11 11 3 14 5 12 2 14-5 11-3 10 14-2 11 9 15 12 5h7l4-13 10-16 14-11-11-10z" transform="translate(0, 40)"/>
</svg>
